<?xml version="1.0" encoding="UTF-8" ?>
<svg version="1.1" width="970" height="210" xmlns="http://www.w3.org/2000/svg" shape-rendering="crispEdges">
<rect x="70" y="20" width="130" height="10" fill="#D77BBA" />
<rect x="200" y="20" width="670" height="10" fill="#5B6EE1" />
<rect x="870" y="20" width="10" height="10" fill="#D77BBA" />
<rect x="880" y="20" width="20" height="20" fill="#5B6EE1" />
<rect x="50" y="30" width="40" height="150" fill="#D77BBA" />
<rect x="90" y="30" width="90" height="10" fill="#000000" />
<rect x="180" y="30" width="10" height="10" fill="#D77BBA" />
<rect x="190" y="30" width="270" height="10" fill="#5B6EE1" />
<rect x="460" y="30" width="10" height="150" fill="#000000" />
<rect x="470" y="30" width="50" height="10" fill="#5B6EE1" />
<rect x="520" y="30" width="40" height="10" fill="#000000" />
<rect x="560" y="30" width="130" height="10" fill="#5B6EE1" />
<rect x="690" y="30" width="40" height="150" fill="#000000" />
<rect x="730" y="30" width="20" height="100" fill="#5B6EE1" />
<rect x="750" y="30" width="40" height="30" fill="#000000" />
<rect x="790" y="30" width="70" height="40" fill="#5B6EE1" />
<rect x="860" y="30" width="10" height="10" fill="#D77BBA" />
<rect x="870" y="30" width="10" height="40" fill="#5B6EE1" />
<rect x="900" y="30" width="20" height="10" fill="#D77BBA" />
<rect x="40" y="40" width="10" height="130" fill="#D77BBA" />
<rect x="90" y="40" width="40" height="140" fill="#000000" />
<rect x="130" y="40" width="20" height="70" fill="#D77BBA" />
<rect x="150" y="40" width="40" height="10" fill="#000000" />
<rect x="190" y="40" width="260" height="10" fill="#5B6EE1" />
<rect x="450" y="40" width="10" height="140" fill="#000000" />
<rect x="470" y="40" width="30" height="30" fill="#5B6EE1" />
<rect x="500" y="40" width="30" height="140" fill="#000000" />
<rect x="530" y="40" width="20" height="20" fill="#5B6EE1" />
<rect x="550" y="40" width="20" height="10" fill="#000000" />
<rect x="570" y="40" width="120" height="30" fill="#5B6EE1" />
<rect x="860" y="40" width="10" height="30" fill="#5B6EE1" />
<rect x="880" y="40" width="10" height="10" fill="#D77BBA" />
<rect x="890" y="40" width="20" height="10" fill="#5B6EE1" />
<rect x="910" y="40" width="20" height="10" fill="#D77BBA" />
<rect x="30" y="50" width="10" height="110" fill="#D77BBA" />
<rect x="150" y="50" width="10" height="50" fill="#D77BBA" />
<rect x="160" y="50" width="40" height="50" fill="#000000" />
<rect x="200" y="50" width="230" height="20" fill="#5B6EE1" />
<rect x="430" y="50" width="20" height="120" fill="#000000" />
<rect x="550" y="50" width="10" height="10" fill="#000000" />
<rect x="560" y="50" width="10" height="80" fill="#5B6EE1" />
<rect x="880" y="50" width="20" height="20" fill="#5B6EE1" />
<rect x="900" y="50" width="10" height="10" fill="#D77BBA" />
<rect x="910" y="50" width="10" height="60" fill="#5B6EE1" />
<rect x="920" y="50" width="20" height="20" fill="#D77BBA" />
<rect x="20" y="60" width="10" height="90" fill="#D77BBA" />
<rect x="530" y="60" width="20" height="20" fill="#000000" />
<rect x="550" y="60" width="10" height="10" fill="#5B6EE1" />
<rect x="750" y="60" width="40" height="10" fill="#5B6EE1" />
<rect x="900" y="60" width="10" height="40" fill="#5B6EE1" />
<rect x="940" y="60" width="10" height="90" fill="#D77BBA" />
<rect x="200" y="70" width="10" height="120" fill="#D77BBA" />
<rect x="210" y="70" width="30" height="10" fill="#5B6EE1" />
<rect x="240" y="70" width="60" height="10" fill="#000000" />
<rect x="300" y="70" width="40" height="10" fill="#5B6EE1" />
<rect x="340" y="70" width="40" height="110" fill="#000000" />
<rect x="380" y="70" width="10" height="10" fill="#5B6EE1" />
<rect x="390" y="70" width="40" height="10" fill="#000000" />
<rect x="470" y="70" width="30" height="10" fill="#000000" />
<rect x="550" y="70" width="10" height="10" fill="#000000" />
<rect x="570" y="70" width="20" height="10" fill="#5B6EE1" />
<rect x="590" y="70" width="60" height="10" fill="#000000" />
<rect x="650" y="70" width="40" height="10" fill="#5B6EE1" />
<rect x="750" y="70" width="40" height="110" fill="#000000" />
<rect x="790" y="70" width="40" height="10" fill="#5B6EE1" />
<rect x="830" y="70" width="60" height="10" fill="#000000" />
<rect x="890" y="70" width="10" height="10" fill="#5B6EE1" />
<rect x="920" y="70" width="10" height="20" fill="#5B6EE1" />
<rect x="930" y="70" width="10" height="90" fill="#D77BBA" />
<rect x="10" y="80" width="10" height="50" fill="#D77BBA" />
<rect x="210" y="80" width="20" height="20" fill="#D77BBA" />
<rect x="230" y="80" width="30" height="90" fill="#000000" />
<rect x="260" y="80" width="20" height="20" fill="#5B6EE1" />
<rect x="280" y="80" width="30" height="90" fill="#000000" />
<rect x="310" y="80" width="30" height="20" fill="#5B6EE1" />
<rect x="380" y="80" width="40" height="10" fill="#000000" />
<rect x="420" y="80" width="10" height="40" fill="#5B6EE1" />
<rect x="470" y="80" width="30" height="40" fill="#5B6EE1" />
<rect x="530" y="80" width="10" height="100" fill="#000000" />
<rect x="540" y="80" width="20" height="40" fill="#5B6EE1" />
<rect x="570" y="80" width="10" height="20" fill="#5B6EE1" />
<rect x="580" y="80" width="30" height="90" fill="#000000" />
<rect x="610" y="80" width="20" height="50" fill="#5B6EE1" />
<rect x="630" y="80" width="30" height="90" fill="#000000" />
<rect x="660" y="80" width="30" height="20" fill="#5B6EE1" />
<rect x="790" y="80" width="30" height="20" fill="#5B6EE1" />
<rect x="820" y="80" width="30" height="90" fill="#000000" />
<rect x="850" y="80" width="20" height="40" fill="#5B6EE1" />
<rect x="870" y="80" width="30" height="90" fill="#000000" />
<rect x="950" y="80" width="10" height="50" fill="#D77BBA" />
<rect x="380" y="90" width="10" height="20" fill="#5B6EE1" />
<rect x="390" y="90" width="30" height="20" fill="#000000" />
<rect x="920" y="90" width="10" height="80" fill="#D77BBA" />
<rect x="150" y="100" width="40" height="10" fill="#000000" />
<rect x="190" y="100" width="10" height="90" fill="#D77BBA" />
<rect x="210" y="100" width="10" height="90" fill="#D77BBA" />
<rect x="220" y="100" width="10" height="50" fill="#000000" />
<rect x="260" y="100" width="10" height="70" fill="#D77BBA" />
<rect x="270" y="100" width="10" height="10" fill="#5B6EE1" />
<rect x="310" y="100" width="10" height="50" fill="#000000" />
<rect x="320" y="100" width="20" height="10" fill="#5B6EE1" />
<rect x="570" y="100" width="10" height="50" fill="#000000" />
<rect x="660" y="100" width="10" height="50" fill="#000000" />
<rect x="670" y="100" width="20" height="30" fill="#5B6EE1" />
<rect x="790" y="100" width="20" height="30" fill="#5B6EE1" />
<rect x="810" y="100" width="10" height="50" fill="#000000" />
<rect x="900" y="100" width="10" height="50" fill="#000000" />
<rect x="130" y="110" width="50" height="10" fill="#000000" />
<rect x="180" y="110" width="10" height="80" fill="#D77BBA" />
<rect x="270" y="110" width="10" height="60" fill="#D77BBA" />
<rect x="320" y="110" width="20" height="80" fill="#D77BBA" />
<rect x="380" y="110" width="40" height="80" fill="#D77BBA" />
<rect x="910" y="110" width="10" height="70" fill="#D77BBA" />
<rect x="130" y="120" width="50" height="70" fill="#D77BBA" />
<rect x="420" y="120" width="10" height="70" fill="#D77BBA" />
<rect x="470" y="120" width="30" height="40" fill="#D77BBA" />
<rect x="540" y="120" width="10" height="70" fill="#D77BBA" />
<rect x="550" y="120" width="10" height="10" fill="#5B6EE1" />
<rect x="850" y="120" width="20" height="50" fill="#D77BBA" />
<rect x="550" y="130" width="20" height="60" fill="#D77BBA" />
<rect x="610" y="130" width="20" height="40" fill="#D77BBA" />
<rect x="670" y="130" width="20" height="60" fill="#D77BBA" />
<rect x="730" y="130" width="20" height="60" fill="#D77BBA" />
<rect x="790" y="130" width="20" height="60" fill="#D77BBA" />
<rect x="220" y="150" width="10" height="40" fill="#D77BBA" />
<rect x="310" y="150" width="10" height="40" fill="#D77BBA" />
<rect x="570" y="150" width="10" height="40" fill="#D77BBA" />
<rect x="660" y="150" width="10" height="40" fill="#D77BBA" />
<rect x="810" y="150" width="10" height="40" fill="#D77BBA" />
<rect x="900" y="150" width="10" height="30" fill="#D77BBA" />
<rect x="470" y="160" width="10" height="10" fill="#D77BBA" />
<rect x="480" y="160" width="10" height="10" fill="#000000" />
<rect x="490" y="160" width="10" height="30" fill="#D77BBA" />
<rect x="230" y="170" width="10" height="20" fill="#D77BBA" />
<rect x="240" y="170" width="60" height="10" fill="#000000" />
<rect x="300" y="170" width="10" height="20" fill="#D77BBA" />
<rect x="430" y="170" width="10" height="20" fill="#D77BBA" />
<rect x="440" y="170" width="10" height="10" fill="#000000" />
<rect x="470" y="170" width="10" height="10" fill="#000000" />
<rect x="480" y="170" width="10" height="20" fill="#D77BBA" />
<rect x="580" y="170" width="10" height="20" fill="#D77BBA" />
<rect x="590" y="170" width="60" height="10" fill="#000000" />
<rect x="650" y="170" width="10" height="20" fill="#D77BBA" />
<rect x="820" y="170" width="10" height="20" fill="#D77BBA" />
<rect x="830" y="170" width="60" height="10" fill="#000000" />
<rect x="890" y="170" width="10" height="20" fill="#D77BBA" />
<rect x="70" y="180" width="60" height="10" fill="#D77BBA" />
<rect x="240" y="180" width="60" height="10" fill="#D77BBA" />
<rect x="340" y="180" width="40" height="10" fill="#D77BBA" />
<rect x="440" y="180" width="40" height="10" fill="#D77BBA" />
<rect x="500" y="180" width="40" height="10" fill="#D77BBA" />
<rect x="590" y="180" width="60" height="10" fill="#D77BBA" />
<rect x="690" y="180" width="40" height="10" fill="#D77BBA" />
<rect x="750" y="180" width="40" height="10" fill="#D77BBA" />
<rect x="830" y="180" width="60" height="10" fill="#D77BBA" />
</svg>