<?xml version="1.0" encoding="UTF-8" ?>
<svg version="1.1" width="1280" height="640" xmlns="http://www.w3.org/2000/svg" shape-rendering="crispEdges">
<rect x="200" y="250" width="130" height="10" fill="#D77BBA" />
<rect x="330" y="250" width="670" height="10" fill="#5B6EE1" />
<rect x="1000" y="250" width="10" height="10" fill="#D77BBA" />
<rect x="1010" y="250" width="20" height="20" fill="#5B6EE1" />
<rect x="180" y="260" width="40" height="150" fill="#D77BBA" />
<rect x="220" y="260" width="90" height="10" fill="#000000" />
<rect x="310" y="260" width="10" height="10" fill="#D77BBA" />
<rect x="320" y="260" width="270" height="10" fill="#5B6EE1" />
<rect x="590" y="260" width="10" height="150" fill="#000000" />
<rect x="600" y="260" width="50" height="10" fill="#5B6EE1" />
<rect x="650" y="260" width="40" height="10" fill="#000000" />
<rect x="690" y="260" width="130" height="10" fill="#5B6EE1" />
<rect x="820" y="260" width="40" height="150" fill="#000000" />
<rect x="860" y="260" width="20" height="100" fill="#5B6EE1" />
<rect x="880" y="260" width="40" height="30" fill="#000000" />
<rect x="920" y="260" width="70" height="40" fill="#5B6EE1" />
<rect x="990" y="260" width="10" height="10" fill="#D77BBA" />
<rect x="1000" y="260" width="10" height="40" fill="#5B6EE1" />
<rect x="1030" y="260" width="20" height="10" fill="#D77BBA" />
<rect x="170" y="270" width="10" height="130" fill="#D77BBA" />
<rect x="220" y="270" width="40" height="140" fill="#000000" />
<rect x="260" y="270" width="20" height="70" fill="#D77BBA" />
<rect x="280" y="270" width="40" height="10" fill="#000000" />
<rect x="320" y="270" width="260" height="10" fill="#5B6EE1" />
<rect x="580" y="270" width="10" height="140" fill="#000000" />
<rect x="600" y="270" width="30" height="30" fill="#5B6EE1" />
<rect x="630" y="270" width="30" height="140" fill="#000000" />
<rect x="660" y="270" width="20" height="20" fill="#5B6EE1" />
<rect x="680" y="270" width="20" height="10" fill="#000000" />
<rect x="700" y="270" width="120" height="30" fill="#5B6EE1" />
<rect x="990" y="270" width="10" height="30" fill="#5B6EE1" />
<rect x="1010" y="270" width="10" height="10" fill="#D77BBA" />
<rect x="1020" y="270" width="20" height="10" fill="#5B6EE1" />
<rect x="1040" y="270" width="20" height="10" fill="#D77BBA" />
<rect x="160" y="280" width="10" height="110" fill="#D77BBA" />
<rect x="280" y="280" width="10" height="50" fill="#D77BBA" />
<rect x="290" y="280" width="40" height="50" fill="#000000" />
<rect x="330" y="280" width="230" height="20" fill="#5B6EE1" />
<rect x="560" y="280" width="20" height="120" fill="#000000" />
<rect x="680" y="280" width="10" height="10" fill="#000000" />
<rect x="690" y="280" width="10" height="80" fill="#5B6EE1" />
<rect x="1010" y="280" width="20" height="20" fill="#5B6EE1" />
<rect x="1030" y="280" width="10" height="10" fill="#D77BBA" />
<rect x="1040" y="280" width="10" height="60" fill="#5B6EE1" />
<rect x="1050" y="280" width="20" height="20" fill="#D77BBA" />
<rect x="150" y="290" width="10" height="90" fill="#D77BBA" />
<rect x="660" y="290" width="20" height="20" fill="#000000" />
<rect x="680" y="290" width="10" height="10" fill="#5B6EE1" />
<rect x="880" y="290" width="40" height="10" fill="#5B6EE1" />
<rect x="1030" y="290" width="10" height="40" fill="#5B6EE1" />
<rect x="1070" y="290" width="10" height="90" fill="#D77BBA" />
<rect x="330" y="300" width="10" height="120" fill="#D77BBA" />
<rect x="340" y="300" width="30" height="10" fill="#5B6EE1" />
<rect x="370" y="300" width="60" height="10" fill="#000000" />
<rect x="430" y="300" width="40" height="10" fill="#5B6EE1" />
<rect x="470" y="300" width="40" height="110" fill="#000000" />
<rect x="510" y="300" width="10" height="10" fill="#5B6EE1" />
<rect x="520" y="300" width="40" height="10" fill="#000000" />
<rect x="600" y="300" width="30" height="10" fill="#000000" />
<rect x="680" y="300" width="10" height="10" fill="#000000" />
<rect x="700" y="300" width="20" height="10" fill="#5B6EE1" />
<rect x="720" y="300" width="60" height="10" fill="#000000" />
<rect x="780" y="300" width="40" height="10" fill="#5B6EE1" />
<rect x="880" y="300" width="40" height="110" fill="#000000" />
<rect x="920" y="300" width="40" height="10" fill="#5B6EE1" />
<rect x="960" y="300" width="60" height="10" fill="#000000" />
<rect x="1020" y="300" width="10" height="10" fill="#5B6EE1" />
<rect x="1050" y="300" width="10" height="20" fill="#5B6EE1" />
<rect x="1060" y="300" width="10" height="90" fill="#D77BBA" />
<rect x="140" y="310" width="10" height="50" fill="#D77BBA" />
<rect x="340" y="310" width="20" height="20" fill="#D77BBA" />
<rect x="360" y="310" width="30" height="90" fill="#000000" />
<rect x="390" y="310" width="20" height="20" fill="#5B6EE1" />
<rect x="410" y="310" width="30" height="90" fill="#000000" />
<rect x="440" y="310" width="30" height="20" fill="#5B6EE1" />
<rect x="510" y="310" width="40" height="10" fill="#000000" />
<rect x="550" y="310" width="10" height="40" fill="#5B6EE1" />
<rect x="600" y="310" width="30" height="40" fill="#5B6EE1" />
<rect x="660" y="310" width="10" height="100" fill="#000000" />
<rect x="670" y="310" width="20" height="40" fill="#5B6EE1" />
<rect x="700" y="310" width="10" height="20" fill="#5B6EE1" />
<rect x="710" y="310" width="30" height="90" fill="#000000" />
<rect x="740" y="310" width="20" height="50" fill="#5B6EE1" />
<rect x="760" y="310" width="30" height="90" fill="#000000" />
<rect x="790" y="310" width="30" height="20" fill="#5B6EE1" />
<rect x="920" y="310" width="30" height="20" fill="#5B6EE1" />
<rect x="950" y="310" width="30" height="90" fill="#000000" />
<rect x="980" y="310" width="20" height="40" fill="#5B6EE1" />
<rect x="1000" y="310" width="30" height="90" fill="#000000" />
<rect x="1080" y="310" width="10" height="50" fill="#D77BBA" />
<rect x="510" y="320" width="10" height="20" fill="#5B6EE1" />
<rect x="520" y="320" width="30" height="20" fill="#000000" />
<rect x="1050" y="320" width="10" height="80" fill="#D77BBA" />
<rect x="280" y="330" width="40" height="10" fill="#000000" />
<rect x="320" y="330" width="10" height="90" fill="#D77BBA" />
<rect x="340" y="330" width="10" height="90" fill="#D77BBA" />
<rect x="350" y="330" width="10" height="50" fill="#000000" />
<rect x="390" y="330" width="10" height="70" fill="#D77BBA" />
<rect x="400" y="330" width="10" height="10" fill="#5B6EE1" />
<rect x="440" y="330" width="10" height="50" fill="#000000" />
<rect x="450" y="330" width="20" height="10" fill="#5B6EE1" />
<rect x="700" y="330" width="10" height="50" fill="#000000" />
<rect x="790" y="330" width="10" height="50" fill="#000000" />
<rect x="800" y="330" width="20" height="30" fill="#5B6EE1" />
<rect x="920" y="330" width="20" height="30" fill="#5B6EE1" />
<rect x="940" y="330" width="10" height="50" fill="#000000" />
<rect x="1030" y="330" width="10" height="50" fill="#000000" />
<rect x="260" y="340" width="50" height="10" fill="#000000" />
<rect x="310" y="340" width="10" height="80" fill="#D77BBA" />
<rect x="400" y="340" width="10" height="60" fill="#D77BBA" />
<rect x="450" y="340" width="20" height="80" fill="#D77BBA" />
<rect x="510" y="340" width="40" height="80" fill="#D77BBA" />
<rect x="1040" y="340" width="10" height="70" fill="#D77BBA" />
<rect x="260" y="350" width="50" height="70" fill="#D77BBA" />
<rect x="550" y="350" width="10" height="70" fill="#D77BBA" />
<rect x="600" y="350" width="30" height="40" fill="#D77BBA" />
<rect x="670" y="350" width="10" height="70" fill="#D77BBA" />
<rect x="680" y="350" width="10" height="10" fill="#5B6EE1" />
<rect x="980" y="350" width="20" height="50" fill="#D77BBA" />
<rect x="680" y="360" width="20" height="60" fill="#D77BBA" />
<rect x="740" y="360" width="20" height="40" fill="#D77BBA" />
<rect x="800" y="360" width="20" height="60" fill="#D77BBA" />
<rect x="860" y="360" width="20" height="60" fill="#D77BBA" />
<rect x="920" y="360" width="20" height="60" fill="#D77BBA" />
<rect x="350" y="380" width="10" height="40" fill="#D77BBA" />
<rect x="440" y="380" width="10" height="40" fill="#D77BBA" />
<rect x="700" y="380" width="10" height="40" fill="#D77BBA" />
<rect x="790" y="380" width="10" height="40" fill="#D77BBA" />
<rect x="940" y="380" width="10" height="40" fill="#D77BBA" />
<rect x="1030" y="380" width="10" height="30" fill="#D77BBA" />
<rect x="600" y="390" width="10" height="10" fill="#D77BBA" />
<rect x="610" y="390" width="10" height="10" fill="#000000" />
<rect x="620" y="390" width="10" height="30" fill="#D77BBA" />
<rect x="360" y="400" width="10" height="20" fill="#D77BBA" />
<rect x="370" y="400" width="60" height="10" fill="#000000" />
<rect x="430" y="400" width="10" height="20" fill="#D77BBA" />
<rect x="560" y="400" width="10" height="20" fill="#D77BBA" />
<rect x="570" y="400" width="10" height="10" fill="#000000" />
<rect x="600" y="400" width="10" height="10" fill="#000000" />
<rect x="610" y="400" width="10" height="20" fill="#D77BBA" />
<rect x="710" y="400" width="10" height="20" fill="#D77BBA" />
<rect x="720" y="400" width="60" height="10" fill="#000000" />
<rect x="780" y="400" width="10" height="20" fill="#D77BBA" />
<rect x="950" y="400" width="10" height="20" fill="#D77BBA" />
<rect x="960" y="400" width="60" height="10" fill="#000000" />
<rect x="1020" y="400" width="10" height="20" fill="#D77BBA" />
<rect x="200" y="410" width="60" height="10" fill="#D77BBA" />
<rect x="370" y="410" width="60" height="10" fill="#D77BBA" />
<rect x="470" y="410" width="40" height="10" fill="#D77BBA" />
<rect x="570" y="410" width="40" height="10" fill="#D77BBA" />
<rect x="630" y="410" width="40" height="10" fill="#D77BBA" />
<rect x="720" y="410" width="60" height="10" fill="#D77BBA" />
<rect x="820" y="410" width="40" height="10" fill="#D77BBA" />
<rect x="880" y="410" width="40" height="10" fill="#D77BBA" />
<rect x="960" y="410" width="60" height="10" fill="#D77BBA" />
</svg>